<mxfile host="app.diagrams.net" agent="Mozilla/5.0 (Windows NT 10.0; Win64; x64) AppleWebKit/537.36 (KHTML, like Gecko) Chrome/134.0.0.0 Safari/537.36" version="26.1.1">
  <diagram name="Page-1" id="tT1DGQbiog5SqWjkDfTY">
    <mxGraphModel dx="819" dy="446" grid="1" gridSize="10" guides="1" tooltips="1" connect="1" arrows="1" fold="1" page="1" pageScale="1" pageWidth="827" pageHeight="1169" math="0" shadow="0">
      <root>
        <mxCell id="0" />
        <mxCell id="1" parent="0" />
        <mxCell id="ui-YX1ZS1hCWvexbHD3b-1" value="&lt;font style=&quot;font-size: 24px;&quot;&gt;&lt;font style=&quot;&quot; face=&quot;Comic Sans MS&quot;&gt;- &lt;font style=&quot;color: rgb(102, 255, 255);&quot;&gt;rwx&lt;/font&gt; &lt;font style=&quot;color: rgb(103, 171, 159);&quot;&gt;rw&lt;/font&gt;&lt;/font&gt;&lt;span style=&quot;font-family: &amp;quot;Comic Sans MS&amp;quot;;&quot;&gt;&lt;font style=&quot;color: rgb(103, 171, 159);&quot;&gt;x &lt;/font&gt;&lt;font style=&quot;color: rgb(255, 153, 51);&quot;&gt;rwx&lt;/font&gt;&lt;/span&gt;&lt;/font&gt;" style="rounded=0;whiteSpace=wrap;html=1;" vertex="1" parent="1">
          <mxGeometry x="320" y="240" width="170" height="60" as="geometry" />
        </mxCell>
        <mxCell id="ui-YX1ZS1hCWvexbHD3b-3" value="&lt;font style=&quot;font-size: 13px;&quot;&gt;User&lt;/font&gt;" style="text;html=1;align=center;verticalAlign=middle;resizable=0;points=[];autosize=1;strokeColor=none;fillColor=none;fontFamily=Comic Sans MS;fontColor=#66FFFF;" vertex="1" parent="1">
          <mxGeometry x="336.25" y="340" width="50" height="30" as="geometry" />
        </mxCell>
        <mxCell id="ui-YX1ZS1hCWvexbHD3b-4" value="&lt;font style=&quot;font-size: 13px;&quot;&gt;Group&lt;/font&gt;" style="text;html=1;align=center;verticalAlign=middle;resizable=0;points=[];autosize=1;strokeColor=none;fillColor=none;fontFamily=Comic Sans MS;fontColor=#67AB9F;" vertex="1" parent="1">
          <mxGeometry x="384" y="340" width="60" height="30" as="geometry" />
        </mxCell>
        <mxCell id="ui-YX1ZS1hCWvexbHD3b-5" value="&lt;font style=&quot;color: rgb(255, 153, 51); font-size: 13px;&quot;&gt;Others&lt;/font&gt;" style="text;html=1;align=center;verticalAlign=middle;resizable=0;points=[];autosize=1;strokeColor=none;fillColor=none;fontFamily=Comic Sans MS;" vertex="1" parent="1">
          <mxGeometry x="428.75" y="340" width="70" height="30" as="geometry" />
        </mxCell>
        <mxCell id="ui-YX1ZS1hCWvexbHD3b-6" value="" style="shape=curlyBracket;whiteSpace=wrap;html=1;rounded=1;flipH=1;labelPosition=right;verticalLabelPosition=middle;align=left;verticalAlign=middle;rotation=90;size=0.5;" vertex="1" parent="1">
          <mxGeometry x="347.5" y="280" width="27.5" height="40" as="geometry" />
        </mxCell>
        <mxCell id="ui-YX1ZS1hCWvexbHD3b-7" value="" style="shape=curlyBracket;whiteSpace=wrap;html=1;rounded=1;flipH=1;labelPosition=right;verticalLabelPosition=middle;align=left;verticalAlign=middle;rotation=90;size=0.5;" vertex="1" parent="1">
          <mxGeometry x="400" y="280" width="27.5" height="40" as="geometry" />
        </mxCell>
        <mxCell id="ui-YX1ZS1hCWvexbHD3b-8" value="" style="shape=curlyBracket;whiteSpace=wrap;html=1;rounded=1;flipH=1;labelPosition=right;verticalLabelPosition=middle;align=left;verticalAlign=middle;rotation=90;size=0.5;" vertex="1" parent="1">
          <mxGeometry x="450" y="280" width="27.5" height="40" as="geometry" />
        </mxCell>
        <mxCell id="ui-YX1ZS1hCWvexbHD3b-9" value="" style="endArrow=classic;html=1;rounded=0;exitX=0.1;exitY=0.5;exitDx=0;exitDy=0;exitPerimeter=0;entryX=0.5;entryY=0.101;entryDx=0;entryDy=0;entryPerimeter=0;" edge="1" parent="1" source="ui-YX1ZS1hCWvexbHD3b-6" target="ui-YX1ZS1hCWvexbHD3b-3">
          <mxGeometry width="50" height="50" relative="1" as="geometry">
            <mxPoint x="370" y="350" as="sourcePoint" />
            <mxPoint x="420" y="300" as="targetPoint" />
          </mxGeometry>
        </mxCell>
        <mxCell id="ui-YX1ZS1hCWvexbHD3b-10" value="" style="endArrow=classic;html=1;rounded=0;exitX=0.1;exitY=0.5;exitDx=0;exitDy=0;exitPerimeter=0;" edge="1" parent="1" source="ui-YX1ZS1hCWvexbHD3b-7" target="ui-YX1ZS1hCWvexbHD3b-4">
          <mxGeometry width="50" height="50" relative="1" as="geometry">
            <mxPoint x="371" y="321" as="sourcePoint" />
            <mxPoint x="371" y="353" as="targetPoint" />
          </mxGeometry>
        </mxCell>
        <mxCell id="ui-YX1ZS1hCWvexbHD3b-11" value="" style="endArrow=classic;html=1;rounded=0;exitX=0.1;exitY=0.5;exitDx=0;exitDy=0;exitPerimeter=0;" edge="1" parent="1" source="ui-YX1ZS1hCWvexbHD3b-8" target="ui-YX1ZS1hCWvexbHD3b-5">
          <mxGeometry width="50" height="50" relative="1" as="geometry">
            <mxPoint x="381" y="331" as="sourcePoint" />
            <mxPoint x="381" y="363" as="targetPoint" />
          </mxGeometry>
        </mxCell>
      </root>
    </mxGraphModel>
  </diagram>
</mxfile>
